<?xml version="1.0" encoding="utf-8"?>
<!-- Generator: Adobe Illustrator 25.2.1, SVG Export Plug-In . SVG Version: 6.00 Build 0)  -->
<svg version="1.1" id="Capa_1" xmlns="http://www.w3.org/2000/svg" xmlns:xlink="http://www.w3.org/1999/xlink" x="0px" y="0px"
	 viewBox="0 0 1045 783" style="enable-background:new 0 0 1045 783;" xml:space="preserve">
<style type="text/css">
	.st0{fill:#DB2777;}
</style>
<path class="st0" d="M1002.08,130.17c-23.83-36.82-58.38-65.55-102.7-85.38C855.33,25.1,801.9,15.12,740.56,15.12H498.44h-15H8.62
	v754.06h474.83h30.92h1.53V514.5h224.66c61.38,0,114.81-9.98,158.82-29.67c44.32-19.81,78.88-48.72,102.72-85.93
	c23.83-37.18,35.91-82.29,35.91-134.09C1038,212.31,1025.91,167.01,1002.08,130.17z M41.07,737.79V402.01h230.56v-31.39H41.07V46.51
	h442.37v691.28H41.07z M938.54,425.56c-44.74,38.19-110.63,57.55-195.86,57.55H515.89V46.51h226.79
	c85.22,0,151.13,19.19,195.88,57.04c44.45,37.62,66.99,91.88,66.99,161.26C1005.55,333.5,983,387.59,938.54,425.56z"/>
</svg>
